<svg width="64" height="57" viewBox="0 0 64 57" fill="none" xmlns="http://www.w3.org/2000/svg">
<path d="M59.6754 40.8959L57.6985 36.8792L52.8349 39.6925L52.6814 39.5486C52.72 39.5245 52.7596 39.5052 52.7973 39.4781C52.7973 39.4781 57.2388 36.8464 57.3489 36.7672C58.9395 35.6151 58.8613 32.5912 57.1751 30.0126C55.4869 27.4321 52.8262 26.2761 51.2356 27.4263L47.0249 29.9373C46.9071 29.9953 46.7931 30.0619 46.684 30.1401C45.9432 30.6752 45.78 31.9017 45.9548 33.2209L45.8186 33.0925V29.41L41.5895 22.7095L39.1297 21.0832C39.1297 21.0832 39.4813 20.8891 39.6097 20.7992C41.4437 19.4694 41.3558 15.9839 39.4088 13.0094C37.4628 10.0377 34.3956 8.70013 32.5606 10.029L24.0242 15.1196L24.0899 16.2147L23.5027 16.5363L18.1726 14.4677V13.2653L25.5791 9.35685L21.7402 5.85498L1.72949 13.3474L7.65736 18.8175L14.2796 15.3224V17.0279L17.796 19.6616L16.0885 20.5955L13.8286 20.0788L10.3238 22.0798V22.6641L5.07104 25.7932C4.91652 25.8676 4.76683 25.9564 4.62389 26.0588C2.71554 27.4398 3.74022 32.3363 5.31152 34.7391C6.95911 37.254 9.05772 38.8146 10.8821 38.8146C11.5037 38.8186 12.1101 38.6226 12.6117 38.2555L18.106 34.9825C18.2632 34.9069 18.4134 34.8177 18.5551 34.7159C18.8837 34.4723 19.1625 34.1677 19.376 33.8187L24.1555 37.4114L30.4929 38.8465C30.3963 38.8996 30.2997 38.9518 30.209 39.0184C28.5227 40.2372 29.4267 44.5609 30.8145 46.6837C32.2689 48.903 34.1222 50.2802 35.7312 50.2802C36.2759 50.2802 36.7926 50.1228 37.2562 49.7867L41.8542 47.0478L47.0258 49.3714L59.6754 40.8959ZM56.416 37.9812L58.0665 41.5226L57.0041 42.2334L55.1692 38.7248L56.416 37.9812ZM20.1737 6.7937L23.5104 10.0561L22.2375 10.7282L18.5705 7.39345L20.1737 6.7937ZM10.3238 16.9632L4.80739 12.6598L7.16675 11.7761L12.0458 16.0554L10.3238 16.9632ZM47.2509 30.9214C47.5058 30.7424 47.8116 30.6503 48.1229 30.6587C49.1158 30.6587 50.6426 31.4623 51.8151 33.2547C53.3188 35.5513 53.2415 37.9648 52.2304 38.6958C52.1367 38.7635 52.0382 38.8079 51.9358 38.8465L50.519 37.5147C50.8193 37.5535 51.123 37.4742 51.366 37.2936C52.2139 36.6813 52.1714 35.0723 51.2733 33.7019C50.3751 32.3276 48.9603 31.7134 48.1143 32.3257C47.5242 32.7516 47.5242 33.6555 47.8776 34.628L49.2915 33.8303C50.154 33.3938 51.2984 34.5865 50.7218 35.4731L49.2886 36.3568L47.1804 34.374C46.739 32.8781 46.7033 31.3164 47.2509 30.9214ZM47.105 43.2359L43.3965 45.5296C43.9383 44.3977 43.9537 42.8322 43.4245 41.203L47.105 43.2359ZM43.2806 39.8026L42.9455 40.0083C42.7565 39.6172 42.5423 39.2388 42.3042 38.8755C42.1477 38.6389 41.9814 38.4088 41.8059 38.1859L41.8493 38.1618C42.7127 37.7243 43.8572 38.918 43.2806 39.8026ZM27.217 13.7308L41.0564 22.9568L45.2971 29.6524L44.1652 30.3371L39.8454 23.5864L26.0291 14.4348L27.217 13.7308ZM35.9755 26.8845C36.0876 26.8758 36.1842 26.8024 36.2682 26.6875C35.8616 28.3824 34.7596 29.2391 32.6504 29.2391C29.8893 29.2391 26.455 27.7808 26.455 24.8777C26.455 21.9736 28.6937 19.621 31.4558 19.621C33.8663 19.621 35.877 21.4125 36.3512 23.7979C36.2595 23.6637 36.1475 23.5806 36.0084 23.5913C33.2279 23.7931 29.5571 23.7661 29.4402 24.8091C29.3224 25.8541 31.5977 27.2003 35.9755 26.8845ZM15.3535 16.3664V14.7555L17.2078 13.7772V15.1312L28.4049 19.4752L25.131 21.0445L15.3535 16.3664ZM13.8479 22.1706C13.0966 21.9292 12.3655 21.8761 11.701 22.0229L12.7421 21.428L13.8479 22.1706ZM10.8821 37.8489C9.41409 37.8489 7.58879 36.4553 6.11986 34.2108C4.67798 32.005 3.9411 27.745 5.1908 26.8401C5.55682 26.5755 5.99818 26.4403 6.50327 26.4403C8.15666 26.4403 10.1954 27.8571 11.5735 29.9634C13.4645 32.853 13.6808 36.2911 12.0448 37.4713C11.7092 37.7214 11.3006 37.8541 10.8821 37.8489ZM24.1555 31.7732L19.6068 28.5553C19.0991 26.9978 18.2539 25.5716 17.1315 24.3784L26.3971 30.6076L36.9007 34.8077L35.3121 35.7676L24.1555 31.7732ZM35.7312 49.3144C34.4941 49.3144 32.8803 48.0744 31.6219 46.1554C30.263 44.0771 29.7879 40.5144 30.7739 39.8016C31.0772 39.5815 31.4442 39.4714 31.8662 39.4714C33.2907 39.4714 35.0503 40.6988 36.2469 42.527C37.8829 45.0303 38.0867 47.9952 36.6892 49.0054C36.4015 49.214 36.0876 49.3144 35.7312 49.3144ZM45.4507 44.6691L49.3755 47.3906L48.2871 48.1208L44.1623 45.4649L45.4507 44.6691Z" fill="white"/>
<path d="M6.49472 28.9128C5.38892 29.7115 5.84476 31.785 7.01816 33.5775C8.19157 35.369 9.63829 36.2024 10.7431 35.4018C11.8489 34.6022 11.7939 32.5016 10.6224 30.7101C9.44803 28.9157 7.60052 28.1132 6.49472 28.9128ZM31.8596 41.5393C30.8813 42.2433 31.285 44.0734 32.3193 45.6582C33.3546 47.2402 34.6323 47.9732 35.6077 47.2672C36.5851 46.5612 36.5368 44.707 35.5015 43.125C34.4652 41.5412 32.836 40.8342 31.8596 41.5393Z" fill="white"/>
</svg>
