<svg width="56" height="57" viewBox="0 0 56 57" fill="none" xmlns="http://www.w3.org/2000/svg">
<rect x="0.5" y="0.615356" width="55" height="55.7692" rx="27.5" stroke="white"/>
<path opacity="0.3" d="M20.3076 25.0386H34.1538V34.5578H20.3076V25.0386Z" fill="white"/>
<path d="M34.7307 23.8848H31.2692V22.154C31.2692 21.1934 30.499 20.4232 29.5384 20.4232H26.0769C25.1163 20.4232 24.3461 21.1934 24.3461 22.154V23.8848H20.8846C19.924 23.8848 19.1625 24.6549 19.1625 25.6155L19.1538 35.1348C19.1538 36.0953 19.924 36.8655 20.8846 36.8655H34.7307C35.6913 36.8655 36.4615 36.0953 36.4615 35.1348V25.6155C36.4615 24.6549 35.6913 23.8848 34.7307 23.8848ZM26.0769 22.154H29.5384V23.8848H26.0769V22.154ZM34.7307 35.1348H20.8846V25.6155H34.7307V35.1348Z" fill="white"/>
</svg>
